<svg width="100%" height="100%" viewBox="0 0 163 40" fill="none" xmlns="http://www.w3.org/2000/svg">
<path d="M162.769 27.5035C162.557 27.2207 162.377 26.9104 162.181 26.6138C161.72 25.9157 161.258 25.2183 160.795 24.5214C160.284 25.069 159.566 25.4814 158.881 25.92C158.234 26.1524 157.558 26.2967 156.872 26.349C155.526 26.4538 154.224 26.3021 153.105 25.4635C151.796 24.4828 151.288 22.6262 151.789 20.7669C152.199 19.2455 153.482 18.211 155.241 17.9986C156.604 17.8339 157.985 18.0403 159.24 18.5959C159.838 18.9448 160.433 19.2924 160.884 19.7407C161.309 19.0538 161.755 18.3297 162.2 17.6055C162.387 17.3021 162.555 16.9876 162.76 16.6966C162.909 16.4855 162.902 16.3352 162.711 16.1573C162.01 15.5048 161.445 15.0855 160.793 14.7641C160.699 14.6745 160.497 14.6 160.096 14.4386C156.839 13.1255 153.571 13.1283 150.38 14.6538C148.557 15.5269 147.291 16.9655 146.577 18.8635C146.073 20.2083 145.938 21.6041 146.076 23.0221C146.367 26.0662 147.813 28.3697 150.582 29.7614C152.632 30.7917 154.828 30.9752 157.074 30.6828C158.06 30.5659 159.023 30.3052 159.933 29.909C159.957 29.9021 159.979 29.9007 160.004 29.891C161.079 29.491 161.775 29.0014 162.739 28.0455C162.924 27.8621 162.924 27.7117 162.769 27.5035Z" fill="#06252D"></path>
<path fill-rule="evenodd" clip-rule="evenodd" d="M87.3307 23.9504C93.0841 23.9504 96.6908 20.6897 96.6908 15.5655C96.6908 10.5655 93.207 7.30484 87.3915 7.30484H74.6154V30.3159H80.5234V23.9504H87.3307ZM86.553 12.0248C89.1334 12.0248 90.6267 13.4538 90.6267 15.7214C90.6267 17.9559 89.0712 19.3848 86.3969 19.3848H80.5234V12.0248H86.553Z" fill="#06252D"></path>
<path d="M99.803 30.3159H105.712V7.30484H99.803V30.3159Z" fill="#06252D"></path>
<path fill-rule="evenodd" clip-rule="evenodd" d="M132.659 23.2676H143.979C144.041 22.8014 144.103 22.0234 144.103 21.4041C144.103 16.4965 140.838 13.4221 135.8 13.4221C130.419 13.4221 126.936 16.8703 126.936 22.0869C126.936 27.5214 130.792 30.7807 136.826 30.7807C139.47 30.7807 141.956 30.16 143.233 29.4772L142.579 25.5021C141.242 26.1241 139.252 26.589 137.448 26.589C134.585 26.589 133.124 25.5641 132.659 23.2676ZM135.738 17.3048C137.727 17.3048 138.847 18.4538 138.847 20.2552H132.565C132.875 18.1752 134.059 17.3048 135.738 17.3048Z" fill="#06252D"></path>
<path d="M110.283 25.2138C110.888 25.4455 111.497 25.6924 112.118 25.9131C113.506 26.4041 114.927 26.8 116.421 26.8648C116.981 26.8896 117.559 26.829 118.11 26.7228C118.613 26.6262 118.976 26.309 119.018 25.7931C119.055 25.3145 118.727 25.0152 118.303 24.8565C117.526 24.5683 116.723 24.3365 115.933 24.0827C114.698 23.6827 113.408 23.3917 112.241 22.8662C109.478 21.6221 108.546 18.6593 110.08 16.2731C110.884 15.0221 112.152 14.3448 113.618 13.9559C116.19 13.2745 118.78 13.4083 121.36 13.9034C122.15 14.0552 122.919 14.3103 123.688 14.5462C123.798 14.5793 123.938 14.7724 123.926 14.8772C123.783 16.0552 123.613 17.229 123.449 18.4028C123.446 18.4248 123.417 18.4441 123.38 18.4883C122.855 18.3324 122.325 18.149 121.78 18.0152C120.123 17.6014 118.443 17.331 116.713 17.5145C116.502 17.5365 116.289 17.5696 116.085 17.6248C115.676 17.7352 115.289 17.9007 115.226 18.349C115.159 18.8055 115.494 19.0703 115.881 19.2248C116.571 19.5007 117.281 19.7365 117.994 19.9614C119.205 20.3448 120.429 20.6924 121.638 21.0841C121.983 21.1945 122.302 21.3821 122.619 21.5628C124.307 22.5296 124.995 23.9696 124.816 25.7559C124.579 28.1462 123.004 29.76 120.345 30.4C117.591 31.0607 114.857 30.8552 112.158 30.149C111.218 29.9034 110.322 29.5145 109.417 29.1683C109.307 29.1269 109.173 28.9241 109.199 28.8317C109.517 27.6455 109.865 26.4648 110.206 25.2828C110.211 25.2621 110.245 25.2469 110.283 25.2138Z" fill="#06252D"></path>
<path fill-rule="evenodd" clip-rule="evenodd" d="M71.9231 30.1972H65.4031L63.925 27.0386H51.9625L50.5839 30.1972H44.1329L55.1852 6.97241H60.904L71.9231 30.1972ZM56.3731 16.931L53.9765 22.4207H61.7632L59.1607 16.8621C58.6616 15.7928 58.1854 14.713 57.7324 13.6234L57.4575 14.2993C57.1923 14.9572 56.9878 15.4648 56.3731 16.931Z" fill="#06252D"></path>
<path fill-rule="evenodd" clip-rule="evenodd" d="M8.31916e-06 8.89104L16.1812 0L32.7851 8.87586V16.1352C32.7935 19.7327 31.9231 23.278 30.2495 26.4638C28.5759 29.6496 26.1495 32.3799 23.1805 34.4179V29.6331C24.223 28.6621 25.15 27.5745 25.9433 26.3917C27.9713 23.3541 29.0493 19.7831 29.0403 16.1324V11.1145L16.2931 4.30069L16.2075 4.25517L3.84018 11.0483L3.74763 11.0993V16.3379C3.74333 19.8412 4.73809 23.2733 6.61557 26.2327C8.49305 29.1922 11.1756 31.5567 14.3495 33.0497V23.8566C12.1504 23.0869 10.5591 21.0152 10.5591 18.5572C10.5609 17.064 11.1557 15.6325 12.213 14.5765C13.2703 13.5206 14.7038 12.9263 16.1992 12.9241C17.6951 12.9256 19.1293 13.5195 20.1872 14.5756C21.245 15.6316 21.8402 17.0636 21.842 18.5572C21.842 21.0138 20.2521 23.0869 18.0516 23.8552V37.0441L16.1011 37.909L13.4005 36.7379C9.41752 35.0129 6.02732 32.1614 3.64817 28.5352C1.26455 24.9122 -0.00374788 20.6713 8.31916e-06 16.3366V8.89104ZM18.1151 18.5586C18.1147 18.0512 17.9125 17.5648 17.553 17.2063C17.1934 16.8477 16.7059 16.6465 16.1978 16.6469C15.6896 16.6473 15.2025 16.8492 14.8434 17.2082C14.4844 17.5672 14.2829 18.054 14.2832 18.5614C14.2836 19.0688 14.4858 19.5552 14.8454 19.9137C15.2049 20.2723 15.6924 20.4735 16.2006 20.4731C16.7087 20.4727 17.1959 20.2708 17.5549 19.9118C17.914 19.5528 18.1155 19.066 18.1151 18.5586Z" fill="#025C7A"></path>
</svg>
