<svg xmlns="http://www.w3.org/2000/svg" viewBox="0 0 854.1 197.6"><defs><linearGradient id="linear-gradient" x1="98.8" y1="104.9" x2="163.9" y2="155.9" gradientTransform="matrix(1 0 0 -1 0 200)" gradientUnits="userSpaceOnUse"><stop offset="0" stop-color="#ffe5b0"/><stop offset="1" stop-color="#ffb600"/></linearGradient><linearGradient id="linear-gradient-2" x1="102.1" y1="95.9" x2="43.4" y2="40.2" gradientTransform="matrix(1 0 0 -1 0 200)" gradientUnits="userSpaceOnUse"><stop offset="0" stop-color="#ffa6d9"/><stop offset="1" stop-color="#fe007a"/></linearGradient><linearGradient id="linear-gradient-3" x1="111.1" y1="106.5" x2="200.9" y2="31" gradientTransform="matrix(1 0 0 -1 0 200)" gradientUnits="userSpaceOnUse"><stop offset="0" stop-color="#b0ffe2"/><stop offset="1" stop-color="#00e19b"/></linearGradient><linearGradient id="linear-gradient-4" x1="101.7" y1="101.8" x2="50.8" y2="149.8" gradientTransform="matrix(1 0 0 -1 0 200)" gradientUnits="userSpaceOnUse"><stop offset="0" stop-color="#80d2ff"/><stop offset="1" stop-color="#0376cf"/></linearGradient><style>.cls-4{fill:#343435}</style></defs><g id="Layer_1"><g id="Layer_1-2" data-name="Layer_1"><path d="M107.7 15.4V97h81.6c0-45.1-36.5-81.6-81.6-81.6z" style="fill:url(#linear-gradient)"/><path d="M16.4 105.9H98v81.6c-45.1 0-81.6-36.5-81.6-81.6z" style="fill:url(#linear-gradient-2)"/><path d="M107.7 105.9h81.6v81.6c-45.1 0-81.6-36.5-81.6-81.6z" style="fill:url(#linear-gradient-3)"/><path d="M98 15.4V97H16.4c0-45 36.5-81.6 81.6-81.6z" style="fill:url(#linear-gradient-4)"/></g><path class="cls-4" d="M240.8 163.3c-.9 0-1.6-.3-2.2-1-.6-.6-.9-1.3-.9-2.1s0-.9.1-1.3l35.1-94.8c.3-1.1.9-2 1.8-2.8.9-.8 2.1-1.2 3.7-1.2h18.9c1.6 0 2.8.4 3.7 1.2.9.8 1.5 1.7 1.8 2.8l35.1 94.8c0 .4.1.8.1 1.3 0 .8-.3 1.5-.9 2.1-.6.6-1.3 1-2.2 1h-15.3c-1.5 0-2.6-.3-3.2-1-.7-.7-1.1-1.3-1.3-1.9l-6.3-16.5h-41.6l-6.3 16.5c-.2.6-.6 1.2-1.3 1.9-.7.7-1.8 1-3.2 1h-15.3zm31.7-38.5H303l-15.2-42.4-15.3 42.4zM354.7 163.3c-1 0-1.8-.3-2.5-1s-1-1.6-1-2.7V90.3c0-1 .3-1.8 1-2.6.7-.7 1.5-1.1 2.5-1.1h14.4c1 0 1.8.4 2.6 1.1.7.7 1.1 1.6 1.1 2.6v5.9c2.5-3 5.5-5.4 9.1-7.1 3.6-1.7 7.7-2.5 12.5-2.5h6.3c1 0 1.8.3 2.5 1s1 1.6 1 2.7V103c0 1.1-.3 2-1 2.7-.7.7-1.5 1-2.5 1h-13c-4.3 0-7.7 1.2-10.2 3.6-2.5 2.4-3.7 5.8-3.7 10.2v39.1c0 1.1-.3 2-1 2.7-.7.7-1.6 1-2.7 1h-15.5zM454.3 163.3c-6.1 0-11.3-1-15.6-3-4.3-2-7.6-5.1-9.8-9.4-2.2-4.2-3.3-9.5-3.3-15.9v-30.9h-11.5c-1.1 0-2-.3-2.7-1-.7-.7-1-1.6-1-2.7v-10c0-1.1.3-2 1-2.7.7-.7 1.6-1 2.7-1h11.5V62.4c0-1.1.4-2 1.1-2.7.7-.7 1.6-1 2.6-1h14.4c1.1 0 2 .3 2.7 1 .7.7 1 1.6 1 2.7v24.3h18.4c1 0 1.8.3 2.5 1s1 1.6 1 2.7v10c0 1.1-.3 2-1 2.7s-1.5 1-2.5 1h-18.4v29.2c0 3.7.7 6.7 2 8.8 1.3 2.1 3.7 3.2 7 3.2h10.8c1 0 1.8.3 2.5 1s1 1.5 1 2.5v10.9c0 1.1-.3 2-1 2.7s-1.5 1-2.5 1h-12.8zM488.8 74.9c-1 0-1.8-.3-2.5-1s-1-1.6-1-2.7V59.4c0-1.1.3-2 1-2.7.7-.7 1.5-1.1 2.5-1.1h15.5c1.1 0 2 .4 2.7 1.1.7.7 1.1 1.6 1.1 2.7v11.8c0 1.1-.4 2-1.1 2.7-.7.7-1.6 1-2.7 1h-15.5zm.5 88.4c-1 0-1.8-.3-2.5-1s-1-1.6-1-2.7V90.3c0-1.1.3-2 1-2.7.7-.7 1.5-1 2.5-1H504c1.1 0 2 .3 2.7 1 .7.7 1 1.6 1 2.7v69.3c0 1.1-.3 2-1 2.7s-1.6 1-2.7 1h-14.7zM540.4 163.3c-1.1 0-2-.3-2.7-1-.7-.7-1-1.6-1-2.7V104h-11.5c-1.1 0-2-.3-2.7-1-.7-.7-1-1.6-1-2.7v-10c0-1.1.3-2 1-2.7.7-.7 1.6-1 2.7-1h11.5v-5.3c0-6.3 1.2-11.4 3.5-15.5 2.4-4 5.8-7 10.3-8.8 4.5-1.9 10.1-2.8 16.7-2.8h33.9c1 0 1.8.3 2.5 1s1 1.6 1 2.7v10c0 1.1-.3 2-1 2.7-.7.7-1.5 1-2.5 1h-33c-3.6 0-6.2.9-7.6 2.7-1.4 1.8-2.1 4.4-2.1 7.8v4.6h42.7c1 0 1.8.3 2.5 1s1 1.6 1 2.7v69.3c0 1.1-.3 2-1 2.7-.7.7-1.5 1-2.5 1h-14.4c-1.1 0-2-.3-2.7-1-.7-.7-1-1.6-1-2.7v-55.6h-24.6v55.6c0 1.1-.3 2-1 2.7s-1.5 1-2.5 1h-14.4zM659.5 164.8c-7.2 0-13.5-1.3-18.9-4-5.5-2.7-9.8-6.5-12.9-11.6-3.1-5.1-4.9-11.1-5.2-18.2 0-1.6-.1-3.6-.1-6s0-4.4.1-6c.3-7.2 2-13.3 5.1-18.3 3.1-5.1 7.4-8.9 12.9-11.6 5.5-2.7 11.8-4 19-4s12.2.9 16.8 2.7c4.6 1.8 8.4 4.1 11.3 6.9 2.9 2.8 5.1 5.6 6.6 8.6 1.4 3 2.2 5.6 2.3 7.9 0 1-.2 1.8-1 2.6-.7.7-1.6 1.1-2.6 1.1h-15.8c-1 0-1.7-.3-2.3-.8-.5-.5-1.1-1.3-1.5-2.3-1.4-3.4-3.1-5.9-5.3-7.4-2.2-1.5-4.9-2.2-8.1-2.2s-7.9 1.4-10.5 4.3c-2.6 2.9-3.9 7.3-4.1 13.3v10.5c.3 6.1 1.7 10.5 4.2 13.3 2.5 2.8 6 4.1 10.4 4.1s6.2-.7 8.3-2.2c2.1-1.5 3.8-3.9 5.2-7.4.4-1 .9-1.7 1.5-2.3.6-.5 1.4-.8 2.4-.8h15.8c1 0 1.8.4 2.6 1.1.7.7 1.1 1.6 1 2.6 0 1.7-.6 3.6-1.4 5.9-.8 2.3-2.2 4.6-4 6.9-1.8 2.4-4.2 4.5-7 6.6-2.9 2-6.3 3.6-10.4 4.9-4.1 1.2-8.8 1.8-14.2 1.8zM716.2 74.9c-1 0-1.8-.3-2.5-1s-1-1.6-1-2.7V59.4c0-1.1.3-2 1-2.7.7-.7 1.5-1.1 2.5-1.1h15.5c1.1 0 2 .4 2.7 1.1.7.7 1.1 1.6 1.1 2.7v11.8c0 1.1-.4 2-1.1 2.7-.7.7-1.6 1-2.7 1h-15.5zm.5 88.4c-1 0-1.8-.3-2.5-1s-1-1.6-1-2.7V90.3c0-1.1.3-2 1-2.7.7-.7 1.5-1 2.5-1h14.7c1.1 0 2 .3 2.7 1 .7.7 1 1.6 1 2.7v69.3c0 1.1-.3 2-1 2.7s-1.6 1-2.7 1h-14.7zM790.8 164.8c-8.2 0-15-1.4-20.5-4.1-5.5-2.7-9.7-6.6-12.6-11.6-2.9-5-4.5-10.9-4.8-17.5 0-2-.1-4.2-.1-6.7s0-4.7.1-6.6c.3-6.8 2-12.6 5-17.6 3-5 7.3-8.8 12.8-11.5 5.5-2.7 12.2-4.1 20-4.1s14.4 1.4 19.9 4.1c5.5 2.7 9.8 6.5 12.8 11.5s4.7 10.8 5 17.6c.2 1.9.3 4.1.3 6.6s0 4.7-.3 6.7c-.3 6.7-1.9 12.5-4.8 17.5s-7.1 8.9-12.6 11.6c-5.5 2.7-12.3 4.1-20.3 4.1zm0-16.2c4.8 0 8.4-1.5 10.9-4.5s3.8-7.4 4-13.2c0-1.5.1-3.4.1-5.9s0-4.4-.1-5.9c-.2-5.7-1.5-10.1-4-13.1s-6.1-4.6-10.9-4.6-8.5 1.5-11 4.6c-2.5 3-3.9 7.4-4.1 13.1 0 1.5-.1 3.4-.1 5.9s0 4.4.1 5.9c.2 5.8 1.5 10.2 4.1 13.2 2.5 3 6.2 4.5 11 4.5z"/></g></svg>