<?xml version="1.0" encoding="UTF-8"?>
<svg xmlns="http://www.w3.org/2000/svg" width="134" height="36" viewBox="0 0 134 36" fill="none">
  <mask id="mask0_627_681" style="mask-type:luminance" maskUnits="userSpaceOnUse" x="0" y="0" width="134" height="36">
    <path d="M133.472 0H0.527191V35.1913H133.472V0Z" fill="white"></path>
  </mask>
  <g mask="url(#mask0_627_681)">
    <path d="M58.3646 28.2745C57.4435 28.2934 56.5262 28.1506 55.6542 27.8527C54.8761 27.566 54.1578 27.1372 53.5358 26.588L53.3179 27.9616H49.6729V6.9174H53.8785V13.9739C54.505 13.5891 55.1876 13.3047 55.9016 13.1309C56.6666 12.9421 57.4519 12.8483 58.2397 12.8517C60.3591 12.8517 62.0354 13.4503 63.2685 14.6476C64.5016 15.8449 65.1195 17.7761 65.1222 20.4411C65.1222 23.1061 64.5147 25.0784 63.2997 26.358C62.6576 27.008 61.886 27.515 61.0353 27.8459C60.1845 28.1768 59.2737 28.3242 58.3622 28.2785M57.1785 25.1871C58.5272 25.1871 59.4772 24.7916 60.0287 24.0006C60.5801 23.2096 60.8552 22.0231 60.8541 20.4411C60.8541 18.7969 60.5581 17.6365 59.9662 16.9598C59.3744 16.2831 58.4345 15.945 57.1467 15.9454C56.5281 15.9414 55.9129 16.0363 55.3242 16.2264C54.7902 16.3927 54.2969 16.6689 53.8756 17.0374V23.8407C54.2904 24.2778 54.7954 24.6189 55.3554 24.8401C55.9352 25.071 56.554 25.1877 57.1779 25.1836" fill="#001236"></path>
    <path d="M75.7468 28.2745C73.1923 28.2745 71.1675 27.6343 69.6724 26.3539C68.1772 25.0736 67.4297 23.1326 67.4297 20.5309C67.4297 18.1787 68.0578 16.3105 69.314 14.9263C70.5702 13.542 72.4446 12.8501 74.937 12.8505C77.2213 12.8505 78.971 13.4492 80.186 14.6465C80.7964 15.2616 81.2734 15.9966 81.587 16.8052C81.9006 17.6138 82.0441 18.4787 82.0085 19.3456V22.0291H71.3238C71.3833 22.5359 71.5627 23.0211 71.8471 23.4444C72.1316 23.8676 72.5128 24.2166 72.959 24.4623C74.1137 24.9566 75.3656 25.1809 76.6196 25.1182C77.4293 25.1164 78.2372 25.0431 79.034 24.8992C79.7517 24.7819 80.4561 24.5937 81.1368 24.3372V27.3347C80.3706 27.671 79.5644 27.9072 78.7381 28.0375C77.7494 28.1987 76.749 28.2762 75.7474 28.2692M71.3238 19.433H78.3329V18.6219C78.3531 18.2528 78.2971 17.8835 78.1685 17.537C78.04 17.1905 77.8415 16.8743 77.5855 16.6081C77.0869 16.1192 76.2456 15.8745 75.0619 15.8741C73.6704 15.8741 72.6995 16.1551 72.1492 16.7171C71.5989 17.279 71.3238 18.184 71.3238 19.433Z" fill="#001236"></path>
    <path d="M89.0494 28.2745C87.6166 28.2745 86.5729 27.9413 85.9182 27.2751C85.2635 26.6088 84.936 25.5467 84.9356 24.0887V6.9174H89.1407V23.7469C89.1193 23.9381 89.1358 24.1317 89.1893 24.3165C89.2428 24.5013 89.3321 24.6737 89.4522 24.8239C89.7032 25.0371 90.0275 25.1436 90.3557 25.1205C90.8523 25.1274 91.3467 25.0536 91.8198 24.9021V27.8063C90.9325 28.1357 89.9913 28.2945 89.0453 28.2745" fill="#001236"></path>
    <path d="M99.4231 28.2745C98.37 28.2787 97.3181 28.2013 96.2769 28.0427C95.46 27.9305 94.6564 27.7364 93.8782 27.4634V23.9653C94.6726 24.2756 95.4976 24.5006 96.3394 24.6367C97.1726 24.7846 98.0168 24.8621 98.863 24.8685C99.6001 24.8981 100.338 24.8351 101.059 24.6808C101.249 24.6406 101.418 24.5332 101.534 24.3783C101.651 24.2235 101.708 24.0315 101.695 23.8378C101.695 23.338 101.368 22.9738 100.713 22.7452C100.058 22.5165 99.0867 22.1938 97.8 21.7771C96.6636 21.4354 95.6052 20.8732 94.6851 20.1225C94.3051 19.7525 94.0106 19.3037 93.8222 18.8074C93.6339 18.3112 93.5563 17.7796 93.5949 17.2501C93.5627 16.6208 93.6867 15.9933 93.9559 15.4239C94.225 14.8545 94.6309 14.3608 95.1371 13.9872C96.1648 13.2275 97.8218 12.8476 100.108 12.8476C100.974 12.8439 101.839 12.9117 102.694 13.0504C103.39 13.1587 104.078 13.3205 104.75 13.5341V16.9998C104.135 16.7127 103.486 16.5082 102.818 16.3915C102.152 16.2622 101.474 16.1944 100.795 16.1887C100.079 16.1719 99.3636 16.2346 98.6613 16.3758C98.1318 16.5006 97.8671 16.7709 97.8671 17.1869C97.8671 17.645 98.1526 17.9677 98.7237 18.155C99.2948 18.3423 100.183 18.6233 101.387 18.9979C102.358 19.261 103.291 19.6493 104.162 20.1532C104.762 20.5011 105.249 21.0164 105.563 21.6363C105.853 22.3107 105.991 23.0407 105.968 23.7747C105.968 26.7722 103.787 28.271 99.426 28.271" fill="#001236"></path>
    <path d="M110.264 27.9616V16.2843H108.052L108.426 13.1616H114.47V27.9616H110.264ZM109.923 7.13582H114.502V10.4456H109.923V7.13582Z" fill="#001236"></path>
    <path d="M125.435 28.275C122.673 28.275 120.648 27.6038 119.361 26.2612C118.074 24.9187 117.43 23.0192 117.43 20.5628C117.43 18.1067 118.079 16.2072 119.376 14.8643C120.674 13.5214 122.694 12.8501 125.436 12.8505C128.198 12.8505 130.228 13.5218 131.526 14.8643C132.824 16.2068 133.473 18.1063 133.473 20.5628C133.473 23.0192 132.829 24.9187 131.542 26.2612C130.255 27.6038 128.219 28.275 125.435 28.275ZM125.435 24.6831C126.784 24.6831 127.75 24.376 128.332 23.7619C128.915 23.1478 129.206 22.081 129.204 20.5616C129.204 19.0422 128.914 17.9752 128.332 17.3607C127.751 16.7462 126.785 16.4392 125.435 16.4395C124.106 16.4395 123.15 16.7466 122.569 17.3607C121.988 17.9748 121.698 19.0418 121.697 20.5616C121.697 22.081 121.988 23.1478 122.569 23.7619C123.151 24.376 124.106 24.6831 125.435 24.6831Z" fill="#001236"></path>
    <path d="M35.6379 7.74182V27.4495C35.6378 27.6361 35.5637 27.8151 35.4321 27.947C35.3004 28.079 35.1218 28.1532 34.9356 28.1534H29.3178C29.2256 28.1532 29.1342 28.1713 29.0489 28.2066C28.9636 28.242 28.8861 28.2938 28.8209 28.3592C28.7557 28.4246 28.7039 28.5023 28.6687 28.5877C28.6335 28.6732 28.6154 28.7648 28.6155 28.8573V34.488C28.6154 34.6746 28.5413 34.8535 28.4097 34.9855C28.278 35.1175 28.0995 35.1917 27.9132 35.1919H8.25129C8.15902 35.192 8.06763 35.1739 7.98235 35.1386C7.89707 35.1033 7.81959 35.0514 7.75435 34.986C7.6891 34.9206 7.63738 34.843 7.60214 34.7575C7.5669 34.672 7.54884 34.5804 7.54899 34.488V28.8567C7.54884 28.6701 7.4748 28.4911 7.34312 28.3591C7.21145 28.2272 7.03291 28.1529 6.8467 28.1528H1.22949C1.13727 28.1529 1.04592 28.1349 0.960685 28.0996C0.875447 28.0643 0.797992 28.0125 0.732755 27.9472C0.667518 27.8818 0.615781 27.8042 0.580507 27.7188C0.545234 27.6334 0.527116 27.5419 0.527192 27.4495V0.703908C0.52704 0.611426 0.545101 0.519825 0.580341 0.434354C0.615581 0.348883 0.667306 0.271224 0.73255 0.20583C0.797795 0.140436 0.875276 0.0885924 0.960551 0.0532718C1.04583 0.0179513 1.13722 -0.000151653 1.22949 9.56896e-07H6.84727C7.03349 0.000154381 7.21203 0.074365 7.3437 0.20634C7.47538 0.338315 7.54942 0.517267 7.54957 0.703908V27.4495C7.54942 27.5419 7.56748 27.6335 7.60272 27.719C7.63796 27.8045 7.68968 27.8821 7.75493 27.9475C7.82017 28.0129 7.89765 28.0648 7.98293 28.1001C8.0682 28.1354 8.1596 28.1535 8.25186 28.1534H27.9138C28.1 28.1532 28.2786 28.079 28.4103 27.947C28.5419 27.8151 28.616 27.6361 28.6161 27.4495V7.74182C28.616 7.55518 28.5419 7.37622 28.4103 7.24425C28.2786 7.11227 28.1 7.03806 27.9138 7.03791H15.2737C15.1816 7.03783 15.0904 7.01958 15.0054 6.98419C14.9204 6.94881 14.8431 6.89698 14.7781 6.83167C14.713 6.76636 14.6614 6.68885 14.6263 6.60356C14.5911 6.51827 14.573 6.42687 14.5731 6.33458V0.703908C14.573 0.611573 14.591 0.520113 14.6261 0.434756C14.6612 0.349398 14.7128 0.271817 14.7778 0.206445C14.8429 0.141074 14.9202 0.0891943 15.0053 0.0537715C15.0903 0.0183486 15.1815 7.69526e-05 15.2737 9.56896e-07H27.9138C28.1 0.000154381 28.2786 0.074365 28.4103 0.20634C28.5419 0.338315 28.616 0.517267 28.6161 0.703908V6.33458C28.616 6.42706 28.634 6.51867 28.6693 6.60414C28.7045 6.68961 28.7562 6.76727 28.8215 6.83266C28.8867 6.89805 28.9642 6.9499 29.0495 6.98522C29.1348 7.02054 29.2261 7.03864 29.3184 7.03849H34.9362C35.1224 7.03864 35.301 7.11285 35.4326 7.24483C35.5643 7.3768 35.6383 7.55576 35.6385 7.7424" fill="#008EFE"></path>
    <path d="M21.5937 14.7803V20.411C21.5936 20.5976 21.5195 20.7766 21.3879 20.9085C21.2562 21.0405 21.0776 21.1147 20.8914 21.1149H15.2736C15.1814 21.115 15.09 21.0969 15.0047 21.0616C14.9194 21.0263 14.842 20.9745 14.7767 20.9091C14.7115 20.8437 14.6597 20.766 14.6245 20.6805C14.5893 20.5951 14.5712 20.5035 14.5714 20.411V14.7803C14.5713 14.6878 14.5894 14.5963 14.6247 14.5108C14.6599 14.4254 14.7116 14.3478 14.7769 14.2824C14.8421 14.217 14.9196 14.1652 15.0048 14.1298C15.09 14.0945 15.1814 14.0763 15.2736 14.0764H20.8914C21.0776 14.0766 21.2562 14.1508 21.3879 14.2827C21.5195 14.4147 21.5936 14.5937 21.5937 14.7803Z" fill="#001236"></path>
  </g>
</svg>
