<svg width="172" height="43" viewBox="0 0 172 43" fill="none" xmlns="http://www.w3.org/2000/svg">
<g>
<path d="M55.65 37.85L55.03 35.32C55.0341 35.2834 55.0341 35.2465 55.03 35.21C55.0007 35.2008 54.9693 35.2008 54.94 35.21C54.911 35.1993 54.879 35.1993 54.85 35.21C54.8424 35.2463 54.8424 35.2837 54.85 35.32L54.23 37.85H55.65ZM57.49 40.44C57.503 40.4755 57.503 40.5145 57.49 40.55C57.4547 40.5639 57.4153 40.5639 57.38 40.55H56.48C56.4476 40.5614 56.4123 40.5614 56.38 40.55C56.3506 40.5193 56.3299 40.4813 56.32 40.44L55.93 38.82H53.93L53.56 40.44C53.5501 40.4813 53.5294 40.5193 53.5 40.55C53.464 40.5598 53.426 40.5598 53.39 40.55H52.5C52.4647 40.5639 52.4253 40.5639 52.39 40.55C52.377 40.5145 52.377 40.4755 52.39 40.44L53.79 35.1C53.8681 34.8467 54.0253 34.625 54.2385 34.4676C54.4518 34.3102 54.7099 34.2252 54.975 34.2252C55.2401 34.2252 55.4982 34.3102 55.7115 34.4676C55.9247 34.625 56.0819 34.8467 56.16 35.1L57.56 40.44M64.25 38.87C64.2557 39.107 64.2114 39.3426 64.1201 39.5614C64.0288 39.7802 63.8925 39.9773 63.72 40.14C63.2387 40.528 62.6258 40.7143 62.01 40.66C61.5024 40.6616 60.996 40.6079 60.5 40.5C60.39 40.5 60.34 40.42 60.34 40.34V39.72C60.3263 39.6812 60.3263 39.6388 60.34 39.6C60.3753 39.5861 60.4147 39.5861 60.45 39.6H60.97L61.56 39.65H62C62.2686 39.6705 62.5363 39.6001 62.76 39.45C62.8382 39.3763 62.8986 39.2858 62.9367 39.1853C62.9748 39.0848 62.9896 38.977 62.98 38.87C62.9851 38.7958 62.9753 38.7213 62.9513 38.6509C62.9272 38.5805 62.8894 38.5156 62.84 38.46C62.6666 38.2916 62.4715 38.147 62.26 38.03L61.14 37.37C60.9137 37.2415 60.7081 37.0797 60.53 36.89C60.3945 36.7474 60.2921 36.5767 60.23 36.39C60.1701 36.2025 60.1398 36.0068 60.14 35.81C60.1336 35.5131 60.2061 35.2198 60.35 34.96C60.5084 34.6992 60.7522 34.5013 61.04 34.4C61.4324 34.2505 61.8502 34.1791 62.27 34.19C62.54 34.19 62.86 34.19 63.19 34.24C63.432 34.2621 63.6724 34.2988 63.91 34.35C63.9306 34.35 63.9509 34.3541 63.9698 34.3623C63.9887 34.3704 64.0057 34.3824 64.0198 34.3974C64.0338 34.4124 64.0447 34.4302 64.0516 34.4495C64.0585 34.4689 64.0614 34.4895 64.06 34.51V35.14C64.0739 35.1753 64.0739 35.2147 64.06 35.25C64.0442 35.2566 64.0272 35.26 64.01 35.26C63.9928 35.26 63.9758 35.2566 63.96 35.25C63.34 35.19 62.78 35.17 62.28 35.17C61.78 35.17 61.39 35.37 61.39 35.77C61.3892 35.9064 61.4391 36.0383 61.53 36.14C61.7001 36.2923 61.8881 36.4233 62.09 36.53L63.09 37.1C63.4591 37.28 63.7785 37.5478 64.02 37.88C64.1996 38.1816 64.2865 38.5294 64.27 38.88M66.34 40.41C66.3546 40.4487 66.3546 40.4913 66.34 40.53C66.3266 40.5492 66.3086 40.5648 66.2877 40.5753C66.2667 40.5858 66.2434 40.5908 66.22 40.59H65.44C65.4168 40.5893 65.3941 40.5835 65.3734 40.5732C65.3527 40.5628 65.3345 40.5481 65.32 40.53C65.3054 40.4913 65.3054 40.4487 65.32 40.41V35.95C65.3199 35.9066 65.3365 35.8648 65.3662 35.8332C65.396 35.8016 65.4367 35.7826 65.48 35.78H66.27C66.3143 35.7824 66.3562 35.8011 66.3875 35.8325C66.4189 35.8638 66.4376 35.9057 66.44 35.95L66.34 40.41ZM66.34 34.97C66.3408 34.9934 66.3358 35.0167 66.3253 35.0377C66.3148 35.0586 66.2992 35.0766 66.28 35.09C66.2513 35.1204 66.2118 35.1384 66.17 35.14H65.34C65.3008 35.1517 65.2591 35.1517 65.22 35.14C65.2016 35.1236 65.1868 35.1036 65.1765 35.0812C65.1662 35.0589 65.1606 35.0346 65.16 35.01V34.26C65.1607 34.2368 65.1665 34.2141 65.1768 34.1934C65.1872 34.1727 65.2019 34.1545 65.22 34.14C65.2518 34.1081 65.295 34.0901 65.34 34.09H66.17C66.2118 34.0988 66.2501 34.1195 66.2803 34.1497C66.3105 34.1799 66.3312 34.2182 66.34 34.26V34.97ZM70.27 37.78C70.2733 37.5877 70.2359 37.3968 70.16 37.22C70.0891 37.0712 69.977 36.9459 69.8369 36.8591C69.6969 36.7722 69.5348 36.7274 69.37 36.73C69.2464 36.7271 69.1236 36.7506 69.0098 36.7989C68.896 36.8471 68.7938 36.9191 68.71 37.01C68.5303 37.2286 68.4408 37.5076 68.46 37.79L70.27 37.78ZM71.4 38.36C71.4 38.5 71.34 38.58 71.23 38.58H68.46C68.4513 38.8548 68.532 39.125 68.69 39.35C68.7856 39.4605 68.9064 39.5463 69.0421 39.6003C69.1779 39.6543 69.3247 39.6747 69.47 39.66C69.99 39.66 70.47 39.66 71.04 39.58C71.14 39.58 71.2 39.58 71.2 39.71V40.27C71.2059 40.2937 71.2069 40.3183 71.203 40.3424C71.199 40.3664 71.1903 40.3894 71.1772 40.41C71.1641 40.4306 71.1469 40.4483 71.1268 40.462C71.1067 40.4758 71.0839 40.4853 71.06 40.49C70.8029 40.5449 70.5423 40.5816 70.28 40.6H69.4C69.1629 40.6026 68.9268 40.5689 68.7 40.5C68.4585 40.4219 68.232 40.3036 68.03 40.15C67.8114 39.9706 67.6397 39.7406 67.53 39.48C67.3906 39.1654 67.3223 38.824 67.33 38.48V37.85C67.2981 37.2702 67.4916 36.7005 67.87 36.26C68.0674 36.0635 68.3037 35.9104 68.5637 35.8105C68.8238 35.7107 69.1018 35.6662 69.38 35.68C69.7651 35.6731 70.145 35.7698 70.48 35.96C70.7828 36.1362 71.0238 36.4016 71.17 36.72C71.3286 37.0721 71.4104 37.4539 71.41 37.84L71.4 38.36ZM78.49 40.41C78.4899 40.455 78.4719 40.4982 78.44 40.53C78.4255 40.5481 78.4073 40.5628 78.3866 40.5732C78.3659 40.5835 78.3432 40.5893 78.32 40.59H77.56C77.5366 40.5908 77.5133 40.5858 77.4923 40.5753C77.4714 40.5648 77.4534 40.5492 77.44 40.53C77.4254 40.4913 77.4254 40.4487 77.44 40.41V37.51C77.4454 37.3413 77.4252 37.1727 77.38 37.01C77.37 36.9564 77.3476 36.9059 77.3146 36.8625C77.2816 36.8191 77.2389 36.784 77.19 36.76C77.0757 36.7023 76.9475 36.678 76.82 36.69C76.5397 36.6896 76.264 36.762 76.02 36.9C76.0349 37.1031 76.0349 37.3069 76.02 37.51V40.41C76.0199 40.455 76.0019 40.4982 75.97 40.53C75.9566 40.5492 75.9386 40.5648 75.9177 40.5753C75.8967 40.5858 75.8734 40.5908 75.85 40.59H75.07C75.0468 40.5893 75.0241 40.5835 75.0034 40.5732C74.9827 40.5628 74.9645 40.5481 74.95 40.53C74.9354 40.4913 74.9354 40.4487 74.95 40.41V37.51C74.9746 37.3409 74.9746 37.1691 74.95 37C74.9408 36.9501 74.9208 36.9027 74.8914 36.8613C74.8621 36.8198 74.8241 36.7853 74.78 36.76C74.6659 36.7018 74.5375 36.6775 74.41 36.69C74.1324 36.7242 73.8659 36.8198 73.63 36.97V40.41C73.6391 40.4305 73.6438 40.4526 73.6438 40.475C73.6438 40.4974 73.6391 40.5195 73.63 40.54C73.588 40.5553 73.542 40.5553 73.5 40.54H72.56C72.5366 40.5408 72.5133 40.5358 72.4923 40.5253C72.4714 40.5148 72.4534 40.4992 72.44 40.48C72.4224 40.4651 72.408 40.4468 72.3977 40.4262C72.3873 40.4055 72.3813 40.383 72.38 40.36V35.95C72.3826 35.904 72.4026 35.8608 72.4361 35.8291C72.4696 35.7975 72.5139 35.7799 72.56 35.78H73.3C73.3418 35.7797 73.3823 35.7948 73.4137 35.8225C73.445 35.8502 73.4651 35.8885 73.47 35.93V36.13C73.6526 36.0104 73.8469 35.9099 74.05 35.83C74.2525 35.7587 74.4654 35.7216 74.68 35.72C74.8654 35.7045 75.0519 35.7315 75.2252 35.7991C75.3985 35.8667 75.5541 35.973 75.68 36.11L76.13 35.9C76.2706 35.8403 76.4186 35.7999 76.57 35.78C76.7408 35.7431 76.9153 35.7263 77.09 35.73C77.2999 35.7055 77.5125 35.7359 77.7071 35.8183C77.9017 35.9007 78.0715 36.0322 78.2 36.2C78.4235 36.6025 78.5276 37.0604 78.5 37.52L78.49 40.41ZM82.39 37.78C82.3981 37.5873 82.3604 37.3953 82.28 37.22C82.2098 37.072 82.0988 36.9471 81.96 36.86C81.7832 36.7569 81.5771 36.7156 81.3743 36.7428C81.1714 36.77 80.9834 36.864 80.84 37.01C80.6603 37.2286 80.5708 37.5076 80.59 37.79L82.39 37.78ZM83.52 38.36C83.52 38.5 83.52 38.58 83.35 38.58H80.56C80.5513 38.8548 80.632 39.125 80.79 39.35C80.8856 39.4572 81.0051 39.5403 81.139 39.5924C81.2728 39.6446 81.4171 39.6643 81.56 39.65C82.08 39.65 82.56 39.65 83.13 39.57C83.24 39.57 83.29 39.57 83.29 39.7V40.26C83.2959 40.2837 83.2969 40.3083 83.293 40.3323C83.289 40.3564 83.2803 40.3794 83.2672 40.4C83.2541 40.4206 83.2369 40.4383 83.2168 40.452C83.1966 40.4658 83.1739 40.4753 83.15 40.48C82.8923 40.5313 82.6319 40.568 82.37 40.59H81.49C81.253 40.5911 81.0172 40.5574 80.79 40.49C80.5494 40.4098 80.3233 40.2916 80.12 40.14C79.9014 39.9606 79.7297 39.7306 79.62 39.47C79.4837 39.1547 79.4189 38.8133 79.43 38.47V37.84C79.3938 37.2596 79.5878 36.6883 79.97 36.25C80.1663 36.0548 80.4009 35.9024 80.6591 35.8026C80.9173 35.7027 81.1934 35.6576 81.47 35.67C81.8554 35.6606 82.236 35.7575 82.57 35.95C82.8733 36.1285 83.1169 36.393 83.27 36.71C83.4584 37.0714 83.5578 37.4725 83.56 37.88L83.52 38.36ZM88.43 40.41C88.4286 40.4578 88.411 40.5036 88.38 40.54C88.338 40.5553 88.292 40.5553 88.25 40.54H87.47C87.4468 40.5393 87.4241 40.5335 87.4034 40.5232C87.3827 40.5128 87.3645 40.4981 87.35 40.48C87.3344 40.4415 87.3344 40.3985 87.35 40.36V37.65C87.3702 37.4538 87.3702 37.2561 87.35 37.06C87.3403 37.0011 87.3172 36.9453 87.2825 36.8967C87.2479 36.8482 87.2025 36.8083 87.15 36.78C86.9693 36.6824 86.7649 36.6374 86.56 36.65C86.2077 36.6698 85.865 36.7726 85.56 36.95V40.38C85.5737 40.4222 85.5737 40.4678 85.56 40.51C85.5213 40.5246 85.4787 40.5246 85.44 40.51H84.66C84.6368 40.5093 84.6141 40.5035 84.5934 40.4932C84.5727 40.4828 84.5545 40.4681 84.54 40.45C84.5254 40.4113 84.5254 40.3687 84.54 40.33V35.95C84.54 35.9277 84.5444 35.9056 84.5529 35.8849C84.5615 35.8643 84.574 35.8456 84.5898 35.8298C84.6056 35.814 84.6243 35.8015 84.6449 35.7929C84.6656 35.7844 84.6877 35.78 84.71 35.78H85.45C85.471 35.7786 85.4921 35.7815 85.512 35.7883C85.532 35.7951 85.5504 35.8058 85.5661 35.8197C85.5819 35.8336 85.5948 35.8505 85.6041 35.8695C85.6133 35.8884 85.6187 35.909 85.62 35.93V36.13C85.8256 35.9896 86.0516 35.8817 86.29 35.81C86.5219 35.75 86.7605 35.7197 87 35.72C87.2217 35.6941 87.4463 35.7266 87.6515 35.8143C87.8568 35.902 88.0355 36.0419 88.17 36.22C88.3952 36.6608 88.4857 37.1581 88.43 37.65V40.41ZM92.76 39.33C92.7572 39.5694 92.6917 39.8038 92.57 40.01C92.433 40.2178 92.2384 40.3811 92.01 40.48C91.7228 40.6037 91.4127 40.665 91.1 40.66H90.37C90.1004 40.637 89.833 40.5935 89.57 40.53C89.5232 40.5226 89.4808 40.498 89.4512 40.461C89.4216 40.424 89.4069 40.3773 89.41 40.33V39.82C89.403 39.806 89.3993 39.7906 89.3993 39.775C89.3993 39.7594 89.403 39.744 89.41 39.73C89.4258 39.7234 89.4428 39.72 89.46 39.72C89.4772 39.72 89.4942 39.7234 89.51 39.73C89.9877 39.7899 90.4686 39.8199 90.95 39.82C91.1178 39.8376 91.2866 39.7989 91.43 39.71C91.4733 39.6739 91.507 39.6275 91.5279 39.5752C91.5489 39.5228 91.5564 39.466 91.55 39.41C91.5494 39.3297 91.5211 39.252 91.47 39.19C91.3802 39.108 91.2832 39.0344 91.18 38.97L90.01 38.26C89.8127 38.0962 89.6583 37.8868 89.56 37.65C89.4294 37.451 89.3599 37.2181 89.36 36.98C89.36 36.13 89.9 35.71 90.98 35.71C91.2563 35.6901 91.5337 35.6901 91.81 35.71C92.0422 35.7406 92.2726 35.784 92.5 35.84C92.546 35.845 92.5882 35.8676 92.618 35.903C92.6478 35.9384 92.6628 35.9838 92.66 36.03V36.53C92.66 36.63 92.66 36.69 92.52 36.69C92.0565 36.6215 91.5885 36.5881 91.12 36.59C90.9658 36.5816 90.8118 36.609 90.67 36.67C90.6223 36.6984 90.5838 36.7399 90.559 36.7895C90.5342 36.8391 90.5241 36.8948 90.53 36.95C90.529 36.9778 90.5338 37.0055 90.5442 37.0313C90.5545 37.0572 90.5701 37.0805 90.59 37.1C90.6792 37.1723 90.7727 37.2391 90.87 37.3L91.99 37.98C92.1847 38.0912 92.3603 38.233 92.51 38.4C92.6204 38.5241 92.7023 38.6709 92.75 38.83C92.7653 38.9763 92.7653 39.1237 92.75 39.27M98.27 39.52V38.52H97.73C97.5336 38.5157 97.3379 38.5427 97.15 38.6C97.0258 38.6392 96.9217 38.7253 96.86 38.84C96.7992 38.9677 96.7717 39.1088 96.78 39.25C96.7695 39.3261 96.7767 39.4035 96.801 39.4763C96.8253 39.5492 96.866 39.6154 96.92 39.67C97.0611 39.7554 97.2256 39.794 97.39 39.78C97.6967 39.7824 97.9979 39.6993 98.26 39.54M99.39 40.44C99.4046 40.4787 99.4046 40.5213 99.39 40.56C99.3512 40.5737 99.3088 40.5737 99.27 40.56H98.55C98.5049 40.56 98.4617 40.5421 98.4298 40.5102C98.3979 40.4783 98.38 40.4351 98.38 40.39V40.26C98.0181 40.4916 97.5996 40.6196 97.17 40.63C96.8109 40.6336 96.4603 40.5214 96.17 40.31C96.0184 40.1726 95.9013 40.0014 95.8283 39.8103C95.7553 39.6191 95.7285 39.4135 95.75 39.21C95.7387 38.9221 95.8117 38.6371 95.96 38.39C96.1243 38.1584 96.3595 37.9864 96.63 37.9C97.0172 37.7744 97.4232 37.7169 97.83 37.73H98.37V37.36C98.3809 37.2608 98.3705 37.1604 98.3395 37.0655C98.3084 36.9707 98.2575 36.8835 98.19 36.81C98.0077 36.6791 97.7827 36.622 97.56 36.65C97.0959 36.64 96.6316 36.6601 96.17 36.71C96.07 36.71 96.01 36.71 96.01 36.57V36.02C96.01 35.93 96.07 35.87 96.17 35.84C96.629 35.7609 97.0943 35.7241 97.56 35.73C97.9021 35.7218 98.2423 35.783 98.56 35.91C98.8278 36.0184 99.0526 36.2116 99.2 36.46C99.3503 36.7354 99.4229 37.0465 99.41 37.36L99.39 40.44ZM104.44 40.41C104.454 40.4522 104.454 40.4978 104.44 40.54C104.398 40.5553 104.352 40.5553 104.31 40.54H103.53C103.507 40.5393 103.484 40.5335 103.463 40.5232C103.443 40.5128 103.424 40.4981 103.41 40.48C103.394 40.4415 103.394 40.3985 103.41 40.36V37.65C103.414 37.4521 103.397 37.2544 103.36 37.06C103.351 37.0023 103.329 36.9473 103.296 36.8989C103.263 36.8505 103.22 36.8099 103.17 36.78C102.982 36.6818 102.771 36.6368 102.56 36.65C102.208 36.6698 101.865 36.7726 101.56 36.95V40.38C101.561 40.4031 101.558 40.4263 101.55 40.4481C101.542 40.4699 101.53 40.4899 101.514 40.5067C101.498 40.5236 101.479 40.537 101.457 40.5462C101.436 40.5553 101.413 40.56 101.39 40.56H100.61C100.587 40.5593 100.564 40.5535 100.543 40.5432C100.523 40.5328 100.504 40.5181 100.49 40.5C100.475 40.4613 100.475 40.4187 100.49 40.38V35.95C100.492 35.9057 100.511 35.8638 100.542 35.8325C100.574 35.8011 100.616 35.7824 100.66 35.78H101.4C101.442 35.7662 101.488 35.7662 101.53 35.78C101.545 35.8187 101.545 35.8613 101.53 35.9V36.08C101.931 35.7924 102.417 35.648 102.91 35.67C103.132 35.6441 103.356 35.6766 103.562 35.7643C103.767 35.852 103.945 35.9919 104.08 36.17C104.319 36.5997 104.426 37.0898 104.39 37.58L104.44 40.41ZM108.23 39.65V36.65C107.958 36.6101 107.684 36.5901 107.41 36.59C107.272 36.5757 107.134 36.5977 107.007 36.6538C106.881 36.71 106.772 36.7983 106.69 36.91C106.548 37.1878 106.482 37.4985 106.5 37.81V38.47C106.482 38.7815 106.548 39.0921 106.69 39.37C106.774 39.4788 106.884 39.565 107.01 39.6209C107.135 39.6767 107.273 39.7005 107.41 39.69C107.681 39.6899 107.952 39.6699 108.22 39.63M109.35 40.16C109.359 40.1821 109.364 40.206 109.364 40.23C109.364 40.254 109.359 40.2778 109.35 40.3C109.293 40.3465 109.223 40.3744 109.15 40.38C108.868 40.4568 108.58 40.5136 108.29 40.55C108.007 40.5699 107.723 40.5699 107.44 40.55C107.162 40.5678 106.883 40.5272 106.621 40.4308C106.359 40.3343 106.12 40.1842 105.92 39.99C105.549 39.5542 105.363 38.991 105.4 38.42V37.76C105.392 37.3645 105.471 36.972 105.63 36.61C105.77 36.2984 106.009 36.0417 106.31 35.88C106.659 35.6999 107.047 35.6105 107.44 35.62C107.71 35.62 107.99 35.62 108.26 35.68V34.27C108.264 34.2264 108.284 34.1857 108.315 34.1547C108.346 34.1237 108.386 34.1044 108.43 34.1H109.21C109.254 34.1044 109.294 34.1237 109.325 34.1547C109.356 34.1857 109.376 34.2264 109.38 34.27L109.35 40.16ZM115.56 37.85L114.95 35.32C114.937 35.2816 114.921 35.2447 114.9 35.21H114.81C114.781 35.2008 114.749 35.2008 114.72 35.21C114.712 35.2462 114.712 35.2838 114.72 35.32L114.1 37.85H115.56ZM117.4 40.44C117.401 40.4601 117.399 40.4802 117.392 40.4991C117.385 40.518 117.374 40.5351 117.359 40.5494C117.345 40.5636 117.328 40.5746 117.309 40.5816C117.29 40.5886 117.27 40.5915 117.25 40.59H116.35C116.314 40.5998 116.276 40.5998 116.24 40.59C116.211 40.5593 116.19 40.5213 116.18 40.48L115.79 38.86H113.79L113.4 40.48C113.39 40.5213 113.369 40.5593 113.34 40.59C113.307 40.5994 113.273 40.5994 113.24 40.59H112.34C112.305 40.6039 112.265 40.6039 112.23 40.59C112.217 40.5545 112.217 40.5155 112.23 40.48L113.63 35.14C113.708 34.8867 113.865 34.665 114.079 34.5076C114.292 34.3502 114.55 34.2652 114.815 34.2652C115.08 34.2652 115.338 34.3502 115.551 34.5076C115.765 34.665 115.922 34.8867 116 35.14L117.4 40.48M121.77 40.36C121.773 40.4035 121.759 40.4465 121.731 40.48C121.703 40.5135 121.663 40.535 121.62 40.54H120.98L120.56 40.65H120.01C119.671 40.6554 119.333 40.6047 119.01 40.5C118.73 40.4113 118.489 40.2274 118.33 39.98C118.148 39.6537 118.062 39.283 118.08 38.91V35.91C118.06 35.5336 118.147 35.1593 118.33 34.83C118.489 34.58 118.729 34.3927 119.01 34.3C119.334 34.2031 119.672 34.1559 120.01 34.16H121.01C121.23 34.16 121.43 34.16 121.64 34.25C121.691 34.2514 121.74 34.2689 121.78 34.3C121.795 34.342 121.795 34.388 121.78 34.43V34.97C121.793 35.0055 121.793 35.0445 121.78 35.08C121.767 35.0992 121.749 35.1148 121.728 35.1253C121.707 35.1358 121.683 35.1408 121.66 35.14H119.86C119.767 35.1294 119.673 35.1382 119.583 35.1657C119.494 35.1933 119.411 35.239 119.34 35.3C119.221 35.4687 119.168 35.6749 119.19 35.88V36.8H121.5C121.542 36.7828 121.588 36.7828 121.63 36.8C121.645 36.8387 121.645 36.8813 121.63 36.92V37.65C121.644 37.6922 121.644 37.7378 121.63 37.78C121.591 37.7946 121.549 37.7946 121.51 37.78H119.2V38.89C119.18 39.0919 119.233 39.2944 119.35 39.46C119.421 39.5205 119.504 39.5659 119.594 39.5934C119.683 39.6209 119.777 39.63 119.87 39.62H121.56C121.605 39.62 121.648 39.6379 121.68 39.6698C121.712 39.7017 121.73 39.7449 121.73 39.79L121.77 40.36ZM126.76 38.87C126.763 39.1067 126.718 39.3415 126.627 39.56C126.536 39.7784 126.401 39.9758 126.23 40.14C125.756 40.511 125.161 40.6928 124.56 40.65C124.052 40.6523 123.546 40.5986 123.05 40.49C122.94 40.49 122.88 40.41 122.88 40.33V39.71C122.871 39.6705 122.871 39.6294 122.88 39.59C122.919 39.5754 122.961 39.5754 123 39.59H124.51C124.782 39.6097 125.052 39.5394 125.28 39.39C125.358 39.3163 125.419 39.2258 125.457 39.1253C125.495 39.0248 125.51 38.917 125.5 38.81C125.504 38.7351 125.492 38.6602 125.467 38.5898C125.441 38.5193 125.401 38.4548 125.35 38.4C125.18 38.2318 124.988 38.0872 124.78 37.97L123.65 37.31C123.429 37.1789 123.227 37.0173 123.05 36.83C122.908 36.6868 122.802 36.512 122.74 36.32C122.671 36.1347 122.641 35.9374 122.65 35.74C122.638 35.4393 122.711 35.1414 122.86 34.88C123.023 34.6269 123.26 34.431 123.54 34.32C123.937 34.1743 124.358 34.1064 124.78 34.12H125.7C125.939 34.1379 126.176 34.1713 126.41 34.22C126.431 34.2213 126.452 34.2267 126.471 34.2359C126.489 34.2452 126.506 34.2581 126.52 34.2738C126.534 34.2896 126.545 34.308 126.552 34.328C126.559 34.3479 126.561 34.369 126.56 34.39V35.01C126.571 35.0282 126.576 35.0489 126.576 35.07C126.576 35.0911 126.571 35.1118 126.56 35.13C126.524 35.1398 126.486 35.1398 126.45 35.13C125.83 35.07 125.27 35.04 124.78 35.04C124.29 35.04 123.88 35.25 123.88 35.65C123.88 35.7882 123.934 35.9209 124.03 36.02C124.197 36.1722 124.381 36.3032 124.58 36.41L125.58 36.98C125.946 37.1603 126.262 37.4282 126.5 37.76C126.683 38.0605 126.774 38.4084 126.76 38.76M133.69 40.33C133.69 40.41 133.63 40.48 133.5 40.52C133.325 40.5597 133.148 40.5897 132.97 40.61C132.697 40.6302 132.423 40.6302 132.15 40.61C131.87 40.6085 131.591 40.5715 131.32 40.5C131.035 40.4126 130.77 40.2699 130.54 40.08C130.279 39.8672 130.076 39.5921 129.95 39.28C129.798 38.8741 129.723 38.4434 129.73 38.01V36.8C129.722 36.3633 129.797 35.9291 129.95 35.52C130.072 35.2054 130.271 34.9268 130.53 34.71C130.758 34.5225 131.024 34.3861 131.31 34.31C131.583 34.2304 131.866 34.19 132.15 34.19C132.346 34.1755 132.544 34.1755 132.74 34.19C132.93 34.19 133.11 34.19 133.25 34.25C133.333 34.2406 133.417 34.2406 133.5 34.25C133.63 34.25 133.7 34.35 133.7 34.44V35.01C133.7 35.13 133.64 35.19 133.53 35.19C133 35.19 132.53 35.12 132.2 35.12C132.031 35.112 131.861 35.141 131.704 35.2049C131.547 35.2688 131.406 35.366 131.29 35.49C131.038 35.848 130.921 36.2839 130.96 36.72V38.05C130.96 39.11 131.37 39.64 132.2 39.64C132.52 39.64 132.97 39.64 133.53 39.57C133.64 39.57 133.7 39.63 133.7 39.75L133.69 40.33ZM137.43 38.54V37.85C137.443 37.5514 137.359 37.2566 137.19 37.01C137.106 36.9128 137.003 36.8347 136.886 36.7812C136.77 36.7278 136.643 36.7001 136.515 36.7001C136.387 36.7001 136.26 36.7278 136.144 36.7812C136.027 36.8347 135.924 36.9128 135.84 37.01C135.671 37.2566 135.587 37.5514 135.6 37.85V38.54C135.59 38.8383 135.674 39.1322 135.84 39.38C135.926 39.4834 136.038 39.5626 136.164 39.6099C136.291 39.6572 136.427 39.671 136.56 39.65C136.688 39.6559 136.816 39.6309 136.933 39.5769C137.05 39.5229 137.151 39.4417 137.23 39.34C137.396 39.0922 137.48 38.7983 137.47 38.5M138.59 38.5C138.599 38.8762 138.52 39.2494 138.36 39.59C138.211 39.9094 137.966 40.1749 137.66 40.35C137.319 40.5271 136.94 40.6195 136.555 40.6195C136.17 40.6195 135.791 40.5271 135.45 40.35C135.144 40.1749 134.899 39.9094 134.75 39.59C134.591 39.2485 134.51 38.8765 134.51 38.5V37.85C134.51 37.4703 134.592 37.095 134.75 36.75C134.899 36.4364 135.14 36.175 135.44 36C135.783 35.8229 136.164 35.7304 136.55 35.7304C136.936 35.7304 137.317 35.8229 137.66 36C137.963 36.1745 138.207 36.4357 138.36 36.75C138.511 37.0972 138.589 37.4715 138.59 37.85V38.5ZM145.64 40.41C145.64 40.455 145.622 40.4982 145.59 40.53C145.576 40.5481 145.557 40.5628 145.537 40.5732C145.516 40.5835 145.493 40.5893 145.47 40.59H144.69C144.667 40.5908 144.643 40.5858 144.622 40.5753C144.601 40.5648 144.583 40.5492 144.57 40.53C144.555 40.4913 144.555 40.4487 144.57 40.41V37.51C144.575 37.3413 144.555 37.1727 144.51 37.01C144.5 36.9564 144.478 36.9059 144.445 36.8625C144.412 36.8191 144.369 36.784 144.32 36.76C144.205 36.7033 144.077 36.6791 143.95 36.69C143.669 36.6882 143.393 36.7607 143.15 36.9C143.165 37.1031 143.165 37.3069 143.15 37.51V40.41C143.15 40.455 143.132 40.4982 143.1 40.53C143.086 40.5481 143.067 40.5628 143.047 40.5732C143.026 40.5835 143.003 40.5893 142.98 40.59H142.2C142.177 40.5908 142.153 40.5858 142.132 40.5753C142.111 40.5648 142.093 40.5492 142.08 40.53C142.065 40.4913 142.065 40.4487 142.08 40.41V37.51C142.083 37.3386 142.066 37.1675 142.03 37C142.021 36.9501 142.001 36.9027 141.971 36.8613C141.942 36.8198 141.904 36.7853 141.86 36.76C141.746 36.7023 141.617 36.678 141.49 36.69C141.212 36.7225 140.945 36.8182 140.71 36.97V40.41C140.709 40.4578 140.691 40.5036 140.66 40.54C140.621 40.5546 140.579 40.5546 140.54 40.54H139.76C139.737 40.5393 139.714 40.5335 139.693 40.5232C139.673 40.5128 139.654 40.4981 139.64 40.48C139.608 40.4482 139.59 40.405 139.59 40.36V35.95C139.59 35.9049 139.608 35.8617 139.64 35.8298C139.672 35.7979 139.715 35.78 139.76 35.78H140.5C140.542 35.7662 140.588 35.7662 140.63 35.78C140.645 35.8187 140.645 35.8613 140.63 35.9V36.08C140.815 35.9585 141.013 35.8579 141.22 35.78C141.422 35.708 141.635 35.6708 141.85 35.67C142.035 35.6545 142.222 35.6815 142.395 35.7491C142.569 35.8167 142.724 35.923 142.85 36.06C142.994 35.9781 143.145 35.9079 143.3 35.85C143.438 35.7916 143.582 35.7513 143.73 35.73C143.901 35.6941 144.075 35.6773 144.25 35.68C144.461 35.6567 144.675 35.6876 144.871 35.7698C145.067 35.8521 145.239 35.9829 145.37 36.15C145.589 36.5544 145.692 37.0109 145.67 37.47L145.64 40.41ZM149.56 38.52V37.86C149.579 37.5472 149.509 37.2355 149.36 36.96C149.282 36.8476 149.174 36.7585 149.049 36.7021C148.924 36.6458 148.786 36.6243 148.65 36.64C148.494 36.6291 148.336 36.6291 148.18 36.64H147.83V39.64C148.102 39.6799 148.376 39.6999 148.65 39.7C148.786 39.7135 148.923 39.6911 149.048 39.6349C149.172 39.5788 149.28 39.4909 149.36 39.38C149.509 39.1045 149.579 38.7928 149.56 38.48M150.69 38.48C150.698 38.8755 150.619 39.2679 150.46 39.63C150.32 39.9416 150.081 40.1983 149.78 40.36C149.432 40.5413 149.042 40.6276 148.65 40.61C148.377 40.6252 148.103 40.6252 147.83 40.61V42.12C147.828 42.1643 147.809 42.2062 147.778 42.2375C147.746 42.2689 147.704 42.2876 147.66 42.29H146.88C146.836 42.2856 146.796 42.2663 146.765 42.2353C146.734 42.2043 146.714 42.1636 146.71 42.12V36.17C146.695 36.1245 146.695 36.0755 146.71 36.03C146.766 35.9893 146.831 35.9619 146.9 35.95C147.457 35.7987 148.032 35.7214 148.61 35.72C149.006 35.7097 149.398 35.7991 149.75 35.98C150.054 36.1431 150.293 36.4038 150.43 36.72C150.582 37.0804 150.657 37.4688 150.65 37.86L150.69 38.48ZM154.1 39.52V38.52H153.56C153.364 38.517 153.168 38.544 152.98 38.6C152.856 38.6392 152.752 38.7253 152.69 38.84C152.635 38.9695 152.608 39.1092 152.61 39.25C152.601 39.3268 152.61 39.4048 152.636 39.4776C152.662 39.5505 152.704 39.6164 152.76 39.67C152.899 39.7612 153.065 39.8002 153.23 39.78C153.536 39.7798 153.837 39.6969 154.1 39.54M155.22 40.44C155.22 40.4851 155.202 40.5283 155.17 40.5602C155.138 40.5921 155.095 40.61 155.05 40.61H154.33C154.291 40.6246 154.249 40.6246 154.21 40.61C154.193 40.595 154.18 40.5765 154.171 40.5557C154.163 40.5349 154.159 40.5125 154.16 40.49V40.36C153.798 40.5916 153.38 40.7196 152.95 40.73C152.591 40.7336 152.24 40.6214 151.95 40.41C151.798 40.2726 151.681 40.1014 151.608 39.9103C151.535 39.7191 151.509 39.5135 151.53 39.31C151.517 39.0219 151.591 38.7366 151.74 38.49C151.899 38.2534 152.136 38.08 152.41 38C152.797 37.8738 153.203 37.8162 153.61 37.83H154.15V37.46C154.161 37.3608 154.151 37.2604 154.119 37.1655C154.088 37.0707 154.037 36.9835 153.97 36.91C153.801 36.8002 153.6 36.7509 153.4 36.77C152.936 36.7598 152.472 36.7799 152.01 36.83C151.9 36.83 151.85 36.83 151.85 36.69V36.14C151.85 36.05 151.91 35.99 152.02 35.96C152.488 35.8712 152.964 35.8277 153.44 35.83C153.782 35.8218 154.122 35.883 154.44 36.01C154.706 36.1163 154.929 36.3103 155.07 36.56C155.228 36.8328 155.304 37.1451 155.29 37.46L155.22 40.44ZM160.27 40.41C160.269 40.4578 160.251 40.5036 160.22 40.54C160.181 40.5546 160.139 40.5546 160.1 40.54H159.32C159.295 40.5394 159.271 40.5338 159.249 40.5235C159.226 40.5132 159.206 40.4984 159.19 40.48C159.174 40.4415 159.174 40.3985 159.19 40.36V37.65C159.194 37.4521 159.177 37.2544 159.14 37.06C159.131 37.0023 159.109 36.9473 159.076 36.8989C159.043 36.8505 159 36.8099 158.95 36.78C158.798 36.7188 158.634 36.6915 158.47 36.7C158.118 36.7198 157.775 36.8226 157.47 37V40.43C157.471 40.4531 157.468 40.4763 157.46 40.4981C157.452 40.5199 157.44 40.5399 157.424 40.5567C157.408 40.5736 157.389 40.587 157.367 40.5962C157.346 40.6053 157.323 40.61 157.3 40.61H156.52C156.497 40.6093 156.474 40.6035 156.453 40.5932C156.433 40.5828 156.414 40.5681 156.4 40.55C156.389 40.5108 156.389 40.4692 156.4 40.43V35.95C156.4 35.9049 156.418 35.8617 156.45 35.8298C156.482 35.7979 156.525 35.78 156.57 35.78H157.31C157.33 35.7772 157.351 35.7787 157.371 35.7843C157.391 35.79 157.41 35.7997 157.426 35.8128C157.442 35.826 157.455 35.8423 157.464 35.8607C157.473 35.8792 157.479 35.8994 157.48 35.92V36.1C157.69 35.9675 157.915 35.8601 158.15 35.78C158.385 35.7193 158.627 35.6891 158.87 35.69C159.09 35.6649 159.313 35.6978 159.517 35.7855C159.72 35.8733 159.897 36.0127 160.03 36.19C160.269 36.6197 160.376 37.1098 160.34 37.6L160.27 40.41ZM165.17 35.93L163.75 40.93C163.677 41.2043 163.566 41.4669 163.42 41.71C163.3 41.9012 163.121 42.0485 162.91 42.13C162.621 42.2307 162.316 42.2782 162.01 42.27C161.85 42.2849 161.69 42.2849 161.53 42.27C161.388 42.2581 161.248 42.2346 161.11 42.2C160.99 42.2 160.92 42.12 160.92 42.05V41.5C160.922 41.4798 160.928 41.4603 160.938 41.4429C160.949 41.4255 160.963 41.4108 160.98 41.4C161.012 41.3681 161.055 41.3501 161.1 41.35H162.06C162.166 41.3703 162.274 41.3703 162.38 41.35C162.466 41.3174 162.54 41.2578 162.59 41.18C162.66 41.0801 162.711 40.9682 162.74 40.85L162.81 40.59H162.68C162.526 40.588 162.376 40.5392 162.25 40.45C162.086 40.2997 161.977 40.0992 161.94 39.88L160.82 35.99V35.93C160.82 35.84 160.88 35.79 160.98 35.79H161.85C161.882 35.7777 161.918 35.7777 161.95 35.79C161.979 35.8207 162 35.8587 162.01 35.9L162.87 39.36C162.87 39.49 162.94 39.56 162.99 39.56H163.07L163.98 35.9C163.985 35.8567 164.007 35.817 164.04 35.789C164.074 35.7611 164.116 35.7471 164.16 35.75H165.03C165.063 35.7406 165.097 35.7406 165.13 35.75C165.143 35.7855 165.143 35.8245 165.13 35.86" fill="#706F6E"/>
<path d="M92.18 0.650006C92.1877 0.472256 92.2638 0.304364 92.3924 0.181383C92.521 0.0584014 92.6921 -0.0101624 92.87 -0.0099942H93.04C94.04 -0.0099942 94.04 -0.00999421 94.38 0.360006C94.56 0.560006 109.56 18.54 109.56 18.54V1.06001C109.573 0.870798 109.658 0.693721 109.797 0.565325C109.937 0.436928 110.12 0.367011 110.31 0.370006H112.65C112.832 0.37259 113.006 0.446116 113.135 0.574961C113.264 0.703805 113.337 0.877811 113.34 1.06001V25.65C113.332 25.8268 113.256 25.9937 113.127 26.1151C112.998 26.2364 112.827 26.3028 112.65 26.3H111.84C111.734 26.2871 111.637 26.2333 111.57 26.15L95.98 7.44001V25.21C95.9827 25.2997 95.9673 25.3889 95.9349 25.4725C95.9024 25.5562 95.8535 25.6324 95.791 25.6967C95.7285 25.7611 95.6537 25.8122 95.5711 25.8472C95.4885 25.8821 95.3997 25.9 95.31 25.9H92.87C92.6878 25.8974 92.5138 25.8239 92.3849 25.6951C92.2561 25.5662 92.1826 25.3922 92.18 25.21V0.650006ZM22.98 1.06001C22.98 0.969394 22.9978 0.879669 23.0325 0.795954C23.0672 0.71224 23.118 0.636175 23.1821 0.572102C23.2462 0.50803 23.3222 0.457205 23.4059 0.422529C23.4897 0.387853 23.5794 0.370006 23.67 0.370006H26.08C26.2614 0.375048 26.434 0.449363 26.5623 0.577686C26.6906 0.706009 26.765 0.878599 26.77 1.06001V22.49H36.65C36.833 22.49 37.0085 22.5627 37.1379 22.6921C37.2673 22.8215 37.34 22.997 37.34 23.18V25.18C37.3413 25.2715 37.3245 25.3623 37.2904 25.4471C37.2563 25.532 37.2057 25.6093 37.1415 25.6744C37.0773 25.7395 37.0008 25.7912 36.9164 25.8265C36.832 25.8618 36.7415 25.88 36.65 25.88H23.65C23.467 25.88 23.2915 25.8073 23.1621 25.6779C23.0327 25.5485 22.96 25.373 22.96 25.19L22.98 1.06001ZM42.43 1.06001C42.4326 0.877811 42.5061 0.703805 42.635 0.574961C42.7638 0.446116 42.9378 0.37259 43.12 0.370006H45.56C45.743 0.370006 45.9185 0.442702 46.0479 0.572102C46.1773 0.701502 46.25 0.877007 46.25 1.06001V16.12C46.25 19.76 48.58 22.61 52.25 22.61C55.92 22.61 58.37 19.8 58.37 16.19V1.06001C58.37 0.877007 58.4427 0.701502 58.5721 0.572102C58.7015 0.442702 58.877 0.370006 59.06 0.370006H61.56C61.7422 0.37259 61.9162 0.446116 62.045 0.574961C62.1739 0.703805 62.2474 0.877811 62.25 1.06001V16.37C62.1682 18.9451 61.0878 21.3874 59.2373 23.1801C57.3868 24.9727 54.9114 25.9751 52.335 25.9751C49.7586 25.9751 47.2832 24.9727 45.4327 23.1801C43.5822 21.3874 42.5018 18.9451 42.42 16.37L42.43 1.06001ZM133.35 5.79283e-06C136.617 -0.050622 139.778 1.16407 142.17 3.39001C142.246 3.44646 142.309 3.51812 142.356 3.60041C142.402 3.68271 142.431 3.77382 142.441 3.86793C142.45 3.96204 142.44 4.05708 142.41 4.14698C142.381 4.23687 142.333 4.31964 142.27 4.39001L142.21 4.45001L140.56 6.05001C140.31 6.38001 139.98 6.38001 139.65 6.05001C137.906 4.5463 135.692 3.69761 133.39 3.65001C132.166 3.66953 130.957 3.93039 129.834 4.41766C128.71 4.90493 127.694 5.60902 126.843 6.48963C125.992 7.37023 125.324 8.41004 124.875 9.5495C124.427 10.689 124.207 11.9057 124.23 13.13C124.211 14.3538 124.435 15.5693 124.887 16.7066C125.339 17.844 126.011 18.8809 126.865 19.7579C127.719 20.6349 128.737 21.3348 129.862 21.8173C130.987 22.2999 132.196 22.5557 133.42 22.57C135.728 22.5375 137.95 21.687 139.69 20.17C139.81 20.0645 139.965 20.0064 140.125 20.0064C140.285 20.0064 140.44 20.0645 140.56 20.17L142.24 21.81C142.308 21.8745 142.362 21.952 142.399 22.038C142.435 22.1239 142.454 22.2165 142.454 22.31C142.454 22.4035 142.435 22.4961 142.399 22.582C142.362 22.668 142.308 22.7456 142.24 22.81C141.068 23.9532 139.683 24.8542 138.162 25.4616C136.642 26.0691 135.017 26.3709 133.38 26.35C129.962 26.2556 126.715 24.8314 124.331 22.3803C121.946 19.9292 120.612 16.6446 120.612 13.225C120.612 9.80545 121.946 6.52081 124.331 4.06969C126.715 1.61857 129.962 0.194367 133.38 0.100006M15.3 0.370006H0.719997C0.629013 0.368658 0.538683 0.385584 0.454359 0.419783C0.370035 0.453981 0.293433 0.504756 0.22909 0.569099C0.164747 0.633441 0.113972 0.710044 0.0797739 0.794367C0.0455755 0.878691 0.028649 0.969021 0.0299971 1.06001V3.06001C0.0299971 3.15062 0.0478445 3.24034 0.0825203 3.32406C0.117196 3.40777 0.168021 3.48384 0.232093 3.54791C0.296166 3.61198 0.372231 3.66281 0.455946 3.69748C0.53966 3.73216 0.629385 3.75001 0.719997 3.75001H15.3C15.3914 3.75133 15.4822 3.73446 15.5671 3.70038C15.652 3.6663 15.7292 3.61568 15.7944 3.55148C15.8595 3.48727 15.9112 3.41076 15.9465 3.32639C15.9818 3.24201 16 3.15147 16 3.06001V1.06001C16 0.969394 15.9821 0.879669 15.9475 0.795954C15.9128 0.71224 15.862 0.636175 15.7979 0.572102C15.7338 0.50803 15.6578 0.457205 15.574 0.422529C15.4903 0.387853 15.4006 0.370006 15.31 0.370006" fill="#0050B5"/>
<path d="M15.3 0.369993H0.72C0.629015 0.368645 0.538685 0.385572 0.454362 0.41977C0.370038 0.453969 0.293436 0.504743 0.229093 0.569086C0.16475 0.633429 0.113975 0.710031 0.0797768 0.794355C0.0455784 0.878679 0.0286518 0.969009 0.03 1.05999V3.05999C0.03 3.24299 0.102696 3.4185 0.232096 3.5479C0.361496 3.6773 0.537001 3.74999 0.72 3.74999H15.3C15.3914 3.75132 15.4823 3.73445 15.5671 3.70037C15.652 3.66629 15.7292 3.61567 15.7944 3.55147C15.8595 3.48726 15.9112 3.41075 15.9465 3.32638C15.9818 3.242 16 3.15145 16 3.05999V1.05999C16 0.969381 15.9822 0.879657 15.9475 0.795942C15.9128 0.712227 15.862 0.636162 15.7979 0.57209C15.7338 0.508017 15.6578 0.457192 15.5741 0.422517C15.4903 0.387841 15.4006 0.369993 15.31 0.369993M3.68 20.83V25.24C3.68133 25.3314 3.66446 25.4222 3.63037 25.5071C3.59629 25.592 3.54568 25.6692 3.48147 25.7344C3.41727 25.7995 3.34076 25.8512 3.25638 25.8865C3.17201 25.9218 3.08146 25.94 2.99 25.94H0.69C0.506902 25.9349 0.332875 25.8591 0.204289 25.7287C0.0757027 25.5982 0.00250766 25.4231 0 25.24V17.11C0 15.5187 0.632141 13.9926 1.75736 12.8674C2.88258 11.7421 4.4087 11.11 6 11.11H15.28C15.463 11.11 15.6385 11.1827 15.7679 11.3121C15.8973 11.4415 15.97 11.617 15.97 11.8V13.8C15.9713 13.8914 15.9545 13.9822 15.9204 14.0671C15.8863 14.152 15.8357 14.2292 15.7715 14.2944C15.7073 14.3595 15.6308 14.4112 15.5464 14.4465C15.462 14.4818 15.3715 14.5 15.28 14.5H6.56C5.81796 14.5147 5.10772 14.804 4.56655 15.312C4.02538 15.8199 3.6917 16.5104 3.63 17.25V20.74L3.68 20.83ZM84.44 0.399993H69.86C69.6768 0.402501 69.5017 0.475696 69.3713 0.604282C69.2409 0.732868 69.1651 0.906895 69.16 1.08999V3.13999C69.16 3.23145 69.1782 3.322 69.2135 3.40638C69.2488 3.49075 69.3005 3.56726 69.3656 3.63147C69.4308 3.69567 69.508 3.74629 69.5929 3.78037C69.6777 3.81445 69.7686 3.83132 69.86 3.82999H84.44C84.623 3.82999 84.7985 3.7573 84.9279 3.6279C85.0573 3.4985 85.13 3.32299 85.13 3.13999V1.08999C85.13 0.906994 85.0573 0.73149 84.9279 0.60209C84.7985 0.47269 84.623 0.399993 84.44 0.399993ZM84.45 14.58C84.633 14.58 84.8085 14.5073 84.9379 14.3779C85.0673 14.2485 85.14 14.073 85.14 13.89V11.89C85.14 11.707 85.0673 11.5315 84.9379 11.4021C84.8085 11.2727 84.633 11.2 84.45 11.2H69.85C69.6678 11.2026 69.4938 11.2761 69.365 11.4049C69.2361 11.5338 69.1626 11.7078 69.16 11.89V20.02C69.1758 21.6009 69.8149 23.1116 70.9384 24.2239C72.0619 25.3362 73.579 25.9601 75.16 25.96H84.44C84.623 25.96 84.7985 25.8873 84.9279 25.7579C85.0573 25.6285 85.13 25.453 85.13 25.27V23.27C85.13 23.087 85.0573 22.9115 84.9279 22.7821C84.7985 22.6527 84.623 22.58 84.44 22.58H75.76C75.0179 22.5652 74.3077 22.276 73.7665 21.768C73.2254 21.2601 72.8917 20.5696 72.83 19.83V14.59H84.45V14.58ZM164.47 0.399993H149.89C149.707 0.399993 149.531 0.47269 149.402 0.60209C149.273 0.73149 149.2 0.906994 149.2 1.08999V3.13999C149.2 3.32299 149.273 3.4985 149.402 3.6279C149.531 3.7573 149.707 3.82999 149.89 3.82999H164.47C164.653 3.82749 164.828 3.75429 164.959 3.6257C165.089 3.49712 165.165 3.32309 165.17 3.13999V1.08999C165.17 0.998534 165.152 0.907985 165.117 0.823612C165.081 0.739238 165.03 0.662725 164.964 0.59852C164.899 0.534315 164.822 0.4837 164.737 0.449618C164.652 0.415537 164.561 0.398668 164.47 0.399993ZM164.47 14.58C164.653 14.58 164.829 14.5073 164.958 14.3779C165.087 14.2485 165.16 14.073 165.16 13.89V11.89C165.16 11.707 165.087 11.5315 164.958 11.4021C164.829 11.2727 164.653 11.2 164.47 11.2H149.88C149.698 11.2026 149.524 11.2761 149.395 11.4049C149.266 11.5338 149.193 11.7078 149.19 11.89V20.02C149.206 21.6009 149.845 23.1116 150.968 24.2239C152.092 25.3362 153.609 25.9601 155.19 25.96H164.48C164.571 25.9613 164.662 25.9445 164.747 25.9104C164.832 25.8763 164.909 25.8257 164.974 25.7615C165.04 25.6973 165.091 25.6207 165.127 25.5364C165.162 25.452 165.18 25.3615 165.18 25.27V23.27C165.177 23.0861 165.102 22.9106 164.971 22.7815C164.84 22.6524 164.664 22.58 164.48 22.58H155.8C155.058 22.5652 154.348 22.276 153.807 21.768C153.265 21.2601 152.932 20.5696 152.87 19.83V14.59H164.48L164.47 14.58Z" fill="#0050B5"/>
<path d="M169.4 0.399994C169.06 0.399994 168.727 0.50087 168.444 0.689866C168.162 0.878862 167.941 1.14749 167.811 1.46178C167.681 1.77607 167.647 2.1219 167.713 2.45555C167.779 2.7892 167.943 3.09567 168.184 3.33622C168.424 3.57676 168.731 3.74058 169.064 3.80694C169.398 3.87331 169.744 3.83925 170.058 3.70907C170.372 3.57888 170.641 3.35843 170.83 3.07557C171.019 2.79272 171.12 2.46018 171.12 2.11999C171.12 1.66382 170.939 1.22633 170.616 0.90377C170.294 0.581208 169.856 0.399994 169.4 0.399994ZM169.4 3.55999C169.114 3.55802 168.834 3.4713 168.597 3.31078C168.36 3.15025 168.176 2.92311 168.068 2.65799C167.959 2.39287 167.932 2.10164 167.989 1.82103C168.046 1.54042 168.185 1.28299 168.388 1.08121C168.591 0.879419 168.85 0.74231 169.131 0.687167C169.412 0.632024 169.703 0.661317 169.967 0.771352C170.232 0.881387 170.457 1.06724 170.616 1.30547C170.775 1.5437 170.86 1.82364 170.86 2.10999C170.86 2.30126 170.822 2.49063 170.749 2.6672C170.675 2.84378 170.567 3.00407 170.432 3.13885C170.296 3.27363 170.135 3.38022 169.958 3.4525C169.781 3.52478 169.591 3.56131 169.4 3.55999Z" fill="#0050B5"/>
<path d="M170.01 2.98H169.86C169.851 2.98526 169.841 2.98804 169.83 2.98804C169.819 2.98804 169.809 2.98526 169.8 2.98L169.36 2.29H169.08V2.95C169.081 2.95999 169.081 2.97018 169.078 2.97987C169.075 2.98955 169.07 2.9985 169.063 3.0061C169.057 3.0137 169.049 3.01977 169.039 3.02389C169.03 3.02802 169.02 3.0301 169.01 3.03H168.88C168.87 3.0301 168.86 3.02802 168.851 3.02389C168.841 3.01977 168.833 3.0137 168.827 3.0061C168.82 2.9985 168.815 2.98955 168.812 2.97987C168.809 2.97018 168.809 2.95999 168.81 2.95V1.28C168.81 1.21 168.81 1.17 168.9 1.17H169.31C169.76 1.17 170.01 1.3 170.01 1.71C170.022 1.82071 169.991 1.9318 169.924 2.02088C169.858 2.10995 169.76 2.17039 169.65 2.19L170.07 2.86C170.07 2.87591 170.064 2.89117 170.052 2.90242C170.041 2.91368 170.026 2.92 170.01 2.92V2.98ZM169.74 1.65C169.74 1.44 169.62 1.36 169.33 1.36H169.08V1.96H169.33C169.63 1.96 169.74 1.88 169.74 1.67V1.65Z" fill="#0050B5"/>
</g>
</svg>
